<svg width="33" height="32" viewBox="0 0 33 32" fill="none" xmlns="http://www.w3.org/2000/svg">
<g clip-path="url(#clip0_22_393)">
<path d="M29.2914 17.6325C28.9193 17.3462 28.4861 17.1496 28.0257 17.0578C27.5652 16.9661 27.0898 16.9819 26.6364 17.1038L21.4064 18.3063C21.528 17.7922 21.5318 17.2574 21.4174 16.7417C21.3029 16.226 21.0732 15.7429 20.7456 15.3287C20.4179 14.9144 20.0006 14.5797 19.5252 14.3495C19.0497 14.1194 18.5283 13.9999 18.0001 14H11.7426C11.2171 13.9987 10.6966 14.1015 10.211 14.3025C9.72551 14.5036 9.28463 14.7988 8.91387 15.1713L6.08637 18H2.50012C1.96969 18 1.46098 18.2107 1.08591 18.5858C0.710836 18.9609 0.500122 19.4696 0.500122 20L0.500122 25C0.500122 25.5304 0.710836 26.0391 1.08591 26.4142C1.46098 26.7893 1.96969 27 2.50012 27H15.5001C15.5819 27 15.6633 26.99 15.7426 26.97L23.7426 24.97C23.7936 24.9579 23.8434 24.9411 23.8914 24.92L28.7501 22.8525L28.8051 22.8275C29.2721 22.5942 29.672 22.2458 29.9671 21.8152C30.2622 21.3846 30.4428 20.886 30.492 20.3663C30.5411 19.8466 30.4571 19.3229 30.248 18.8447C30.0388 18.3664 29.7113 17.9492 29.2964 17.6325H29.2914ZM2.50012 20H5.50012V25H2.50012V20ZM27.9289 21.0263L23.1789 23.0488L15.3751 25H7.50012V19.4138L10.3289 16.5863C10.5139 16.3997 10.7342 16.2518 10.9769 16.1512C11.2196 16.0506 11.4799 15.9992 11.7426 16H18.0001C18.3979 16 18.7795 16.158 19.0608 16.4393C19.3421 16.7206 19.5001 17.1022 19.5001 17.5C19.5001 17.8978 19.3421 18.2794 19.0608 18.5607C18.7795 18.842 18.3979 19 18.0001 19H14.5001C14.2349 19 13.9806 19.1054 13.793 19.2929C13.6055 19.4804 13.5001 19.7348 13.5001 20C13.5001 20.2652 13.6055 20.5196 13.793 20.7071C13.9806 20.8946 14.2349 21 14.5001 21H18.5001C18.5754 20.9998 18.6504 20.9914 18.7239 20.975L27.0989 19.0488L27.1376 19.0388C27.3933 18.9678 27.6662 18.9939 27.9038 19.112C28.1413 19.2301 28.3269 19.4319 28.4246 19.6786C28.5223 19.9253 28.5254 20.1994 28.4332 20.4482C28.341 20.697 28.16 20.9029 27.9251 21.0263H27.9289ZM21.0001 12C21.2472 12.0003 21.4939 11.9802 21.7376 11.94C22.0118 12.7544 22.5135 13.4733 23.1833 14.0117C23.8531 14.55 24.663 14.8854 25.5174 14.978C26.3717 15.0706 27.2347 14.9167 28.0044 14.5344C28.774 14.1521 29.418 13.5574 29.8604 12.8206C30.3028 12.0839 30.5249 11.2359 30.5006 10.3769C30.4763 9.51787 30.2065 8.68379 29.7232 7.97325C29.2399 7.2627 28.5632 6.7054 27.7732 6.36724C26.9832 6.02909 26.1129 5.9242 25.2651 6.065C25.0011 5.28031 24.5257 4.58366 23.8913 4.05172C23.2569 3.51979 22.488 3.17318 21.6693 3.05005C20.8506 2.92692 20.0138 3.03203 19.251 3.35383C18.4882 3.67563 17.8289 4.20163 17.3458 4.87396C16.8626 5.54628 16.5743 6.33886 16.5126 7.16447C16.4509 7.99008 16.6181 8.81672 16.9959 9.55342C17.3737 10.2901 17.9474 10.9083 18.6539 11.34C19.3603 11.7716 20.1722 12 21.0001 12ZM28.5001 10.5C28.5001 10.9945 28.3535 11.4778 28.0788 11.8889C27.8041 12.3001 27.4136 12.6205 26.9568 12.8097C26.5 12.9989 25.9973 13.0484 25.5124 12.952C25.0274 12.8555 24.582 12.6174 24.2324 12.2678C23.8827 11.9181 23.6446 11.4727 23.5482 10.9877C23.4517 10.5028 23.5012 10.0001 23.6904 9.54329C23.8796 9.08648 24.2001 8.69603 24.6112 8.42133C25.0223 8.14662 25.5057 8 26.0001 8C26.6632 8 27.299 8.26339 27.7679 8.73223C28.2367 9.20108 28.5001 9.83696 28.5001 10.5ZM21.0001 5C21.5455 5.00027 22.0758 5.17888 22.5103 5.5086C22.9447 5.83832 23.2594 6.30105 23.4064 6.82625C22.8942 7.18662 22.4629 7.64992 22.14 8.18652C21.8172 8.72312 21.6099 9.3212 21.5314 9.9425C21.3568 9.9802 21.1787 9.99948 21.0001 10C20.3371 10 19.7012 9.73661 19.2324 9.26777C18.7635 8.79893 18.5001 8.16304 18.5001 7.5C18.5001 6.83696 18.7635 6.20108 19.2324 5.73223C19.7012 5.26339 20.3371 5 21.0001 5Z" fill="white"/>
</g>
<defs>
<clipPath id="clip0_22_393">
<rect width="32" height="32" fill="white" transform="translate(0.500122)"/>
</clipPath>
</defs>
</svg>
