<svg width="48" height="48" viewBox="0 0 48 48" fill="none" xmlns="http://www.w3.org/2000/svg">
<path d="M42.2891 11.3753L25.7528 1.77338C24.7099 1.17938 23.352 1.17938 22.3009 1.77338L5.58788 11.3753C4.51163 11.9944 3.75 13.158 3.75 14.4026V33.5809C3.75 34.8255 4.5315 35.9895 5.60775 36.612L10.0234 39.12C12.1339 40.1595 12.8798 40.1595 13.8401 40.1595C16.965 40.1595 18.75 38.2699 18.75 34.974V16.0403C18.75 15.7729 18.6109 15.375 18.3484 15.375H16.2397C15.9727 15.375 15.375 15.7729 15.375 16.0399V34.9736C15.375 36.4346 14.0535 37.8885 11.5837 36.6536L7.02112 34.0238C6.86212 33.9375 6.75 33.7639 6.75 33.5809V14.4026C6.75 14.2219 6.95813 14.0404 7.11825 13.9478L23.7772 4.36238C23.9329 4.27426 24.1616 4.27426 24.3169 4.36238L40.7726 13.9455C40.9301 14.0404 40.8746 14.2163 40.8746 14.4026V33.5809C40.8746 33.7639 40.9432 33.942 40.7876 34.0301L24.2554 43.6211C24.1136 43.7063 23.9377 43.7063 23.7825 43.6211L19.5424 41.0903C19.4145 41.016 19.2626 40.9894 19.14 41.058C17.9603 41.7266 17.7427 41.8155 16.6361 42.1991C16.3639 42.294 15.9622 42.4586 16.7899 42.9225L22.3391 46.2053C22.8689 46.5113 23.4699 46.6724 24.0818 46.6725C24.6975 46.6725 25.3005 46.5128 25.8319 46.2053L42.2887 36.612C43.365 35.985 43.875 34.8255 43.875 33.5809V14.4026C43.875 13.158 43.365 11.9974 42.2891 11.3753ZM29.2163 30.5419C24.819 30.5419 23.8504 29.3288 23.5275 27.1421C23.49 26.9066 23.2901 26.625 23.0505 26.625H20.9014C20.6355 26.625 20.4217 26.9475 20.4217 27.2123C20.4217 30.012 21.9439 33.4043 29.2166 33.4043C34.4813 33.4043 37.4996 31.3586 37.4996 27.7384C37.4996 24.1489 35.0745 23.2069 29.9689 22.5311C24.8081 21.849 24.2839 21.5044 24.2839 20.2954C24.2839 19.2986 24.7279 17.9693 28.5491 17.9693C31.9635 17.9693 33.222 18.702 33.7399 21.0034C33.7841 21.2198 33.9817 21.375 34.2049 21.375H36.3626C36.4954 21.375 36.6221 21.3214 36.7151 21.2265C36.8051 21.1245 36.8527 20.9966 36.8407 20.8594C36.5066 16.8964 33.8737 15.0495 28.5487 15.0495C23.8121 15.0495 20.9865 17.0498 20.9865 20.4026C20.9865 24.0394 23.7979 25.0444 28.3447 25.494C33.7841 26.0273 34.2071 26.8223 34.2071 27.8921C34.2071 29.7503 32.7154 30.5419 29.2163 30.5419Z" fill="#FF9000"/>
</svg>
