<svg width="350" height="246" viewBox="0 0 350 246" fill="none" xmlns="http://www.w3.org/2000/svg">
<g clip-path="url(#clip0_23_599)">
<path d="M178.752 245.479C189.279 245.479 197.813 236.968 197.813 226.469C197.813 215.97 189.279 207.458 178.752 207.458C168.225 207.458 159.692 215.97 159.692 226.469C159.692 236.968 168.225 245.479 178.752 245.479Z" fill="#FF9000"/>
<path d="M292.621 244.411C303.284 241.217 314.621 237.886 323.078 230.293C330.635 223.508 335.737 213.147 332.606 202.972C329.482 192.817 320.124 186.046 310.462 182.678C304.982 180.768 299.249 179.708 293.518 178.876C287.288 177.971 281.031 177.23 274.776 176.516C249.451 173.627 224.031 171.863 198.516 171.222C185.926 170.906 173.338 170.913 160.746 171.096C149.501 171.258 137.657 171.254 127.225 166.487C119.112 162.781 111.749 156.036 109.489 147.174C106.879 136.944 111.692 126.526 118.596 119.117C122.235 115.211 126.489 111.924 130.876 108.902C135.636 105.623 140.562 102.576 145.595 99.7325C155.507 94.1339 165.869 89.3692 176.575 85.4879C181.856 83.5727 187.216 81.9203 192.622 80.3959C197.187 79.1087 201.767 77.8197 206.178 76.0659C214.707 72.6756 222.82 66.9329 224.988 57.5181C227.044 48.5951 223.578 38.9085 217.503 32.2798C210.474 24.6109 199.876 21.2491 189.716 20.7051C178.309 20.0945 167.165 22.9417 156.444 26.5552C145.009 30.4093 133.82 34.8409 122.144 37.9626C110.565 41.0553 98.762 43.2435 86.8422 44.5073C81.007 45.127 74.9955 45.8268 69.1257 45.3523C64.2062 44.9547 59.3119 43.5118 55.6863 40.0296C52.5775 37.0439 50.7256 32.9405 51.3623 28.6102C51.4779 27.8237 52.6759 28.1581 52.561 28.9398C51.786 34.211 55.3786 39.0683 59.8057 41.5564C64.9223 44.4321 71.1485 44.436 76.845 44.1071C89.1966 43.3631 101.465 41.5943 113.522 38.8191C125.369 36.1203 136.794 32.2622 148.205 28.1408C159.043 24.2265 170.124 20.4062 181.702 19.5584C191.749 18.8228 202.317 20.2825 211.07 25.519C218.762 30.1211 224.418 37.7959 226.221 46.6029C227.982 55.209 225.543 63.8711 219.011 69.8767C212.248 76.0948 202.975 78.7533 194.333 81.2017C183.372 84.3071 172.647 87.9371 162.265 92.6504C151.741 97.4144 141.649 103.073 132.099 109.564C122.881 115.847 113.784 123.752 110.869 134.96C109.511 140.181 109.761 145.718 112.034 150.649C114.054 155.034 117.382 158.722 121.258 161.567C130.507 168.355 142.164 169.748 153.336 169.887C165.883 170.043 178.431 169.62 190.982 169.826C216.562 170.245 242.089 171.798 267.564 174.485C273.947 175.158 280.322 175.903 286.69 176.719C292.417 177.453 298.163 178.182 303.794 179.486C313.806 181.803 323.548 186.26 329.771 194.726C332.533 198.396 334.244 202.745 334.721 207.308C335.157 212.071 333.988 216.842 331.829 221.079C327.05 230.456 318.1 236.42 308.594 240.339C303.503 242.437 298.222 244.027 292.952 245.606C292.184 245.836 291.856 244.64 292.621 244.411Z" fill="#F2F2F2"/>
<path d="M52.165 38.6404C57.6573 38.6404 62.1096 34.1998 62.1096 28.722C62.1096 23.2443 57.6573 18.8037 52.165 18.8037C46.6727 18.8037 42.2203 23.2443 42.2203 28.722C42.2203 34.1998 46.6727 38.6404 52.165 38.6404Z" fill="#F2F2F2"/>
<path d="M121.156 57.4436C126.648 57.4436 131.101 53.003 131.101 47.5253C131.101 42.0475 126.648 37.6069 121.156 37.6069C115.664 37.6069 111.211 42.0475 111.211 47.5253C111.211 53.003 115.664 57.4436 121.156 57.4436Z" fill="#F2F2F2"/>
<path d="M179.581 19.8367C185.073 19.8367 189.525 15.3961 189.525 9.91833C189.525 4.44059 185.073 0 179.581 0C174.089 0 169.636 4.44059 169.636 9.91833C169.636 15.3961 174.089 19.8367 179.581 19.8367Z" fill="#F2F2F2"/>
<path d="M216.045 61.9895C221.537 61.9895 225.989 57.5489 225.989 52.0712C225.989 46.5934 221.537 42.1528 216.045 42.1528C210.552 42.1528 206.1 46.5934 206.1 52.0712C206.1 57.5489 210.552 61.9895 216.045 61.9895Z" fill="#F2F2F2"/>
<path d="M166.736 110.755C172.228 110.755 176.68 106.314 176.68 100.836C176.68 95.3586 172.228 90.918 166.736 90.918C161.243 90.918 156.791 95.3586 156.791 100.836C156.791 106.314 161.243 110.755 166.736 110.755Z" fill="#F2F2F2"/>
<path d="M104.167 134.311C109.66 134.311 114.112 129.87 114.112 124.392C114.112 118.915 109.66 114.474 104.167 114.474C98.675 114.474 94.2226 118.915 94.2226 124.392C94.2226 129.87 98.675 134.311 104.167 134.311Z" fill="#F2F2F2"/>
<path d="M170.465 171.091C175.957 171.091 180.41 166.65 180.41 161.173C180.41 155.695 175.957 151.254 170.465 151.254C164.973 151.254 160.52 155.695 160.52 161.173C160.52 166.65 164.973 171.091 170.465 171.091Z" fill="#F2F2F2"/>
<path d="M241.735 191.754C247.227 191.754 251.68 187.314 251.68 181.836C251.68 176.358 247.227 171.917 241.735 171.917C236.243 171.917 231.79 176.358 231.79 181.836C231.79 187.314 236.243 191.754 241.735 191.754Z" fill="#F2F2F2"/>
<path d="M325.021 187.208C330.514 187.208 334.966 182.768 334.966 177.29C334.966 171.812 330.514 167.372 325.021 167.372C319.529 167.372 315.077 171.812 315.077 177.29C315.077 182.768 319.529 187.208 325.021 187.208Z" fill="#F2F2F2"/>
<path d="M176.71 28.1035C146.921 28.3133 122.53 52.4571 122.107 82.1651C122.103 82.4394 122.101 84.368 122.102 86.8905C122.102 90.589 123.575 94.1359 126.197 96.7513C128.819 99.3666 132.375 100.836 136.084 100.836C137.922 100.836 139.742 100.474 141.44 99.7722C143.138 99.0699 144.681 98.0408 145.98 96.7437C147.279 95.4466 148.309 93.9069 149.012 92.2126C149.714 90.5182 150.075 88.7025 150.073 86.8691C150.072 85.1532 150.071 83.9656 150.071 83.8927C150.07 79.3013 151.267 74.7888 153.545 70.799C155.823 66.8092 159.103 63.4796 163.063 61.1376C167.023 58.7957 171.525 57.5221 176.128 57.4421C180.731 57.3622 185.275 58.4786 189.314 60.6817C193.353 62.8847 196.748 66.0984 199.164 70.0066C201.58 73.9149 202.934 78.3831 203.093 82.9717C203.253 87.5603 202.211 92.1112 200.072 96.1768C197.933 100.242 194.77 103.683 190.894 106.159L190.898 106.165C190.898 106.165 170.997 118.943 164.93 136.472L164.935 136.473C163.868 140.064 163.328 143.79 163.33 147.535C163.33 149.075 163.421 162.546 163.596 173.479C163.658 177.251 165.204 180.849 167.901 183.495C170.597 186.14 174.229 187.623 178.012 187.622C179.913 187.622 181.795 187.247 183.55 186.519C185.305 185.79 186.898 184.723 188.238 183.378C189.578 182.034 190.638 180.438 191.358 178.683C192.077 176.928 192.441 175.049 192.429 173.153C192.368 163.14 192.335 151.481 192.335 150.635C192.335 139.871 202.746 129.147 211.298 122.154C221.146 114.1 228.232 103.126 231.078 90.746C231.708 88.1973 232.056 85.5872 232.114 82.9628C232.114 75.7251 230.678 68.5588 227.889 61.877C225.1 55.1952 221.012 49.1299 215.862 44.0305C210.712 38.9312 204.602 34.8986 197.882 32.1651C191.163 29.4316 183.967 28.0512 176.71 28.1035Z" fill="#FF9000"/>
<path d="M349.507 246H0.493349C0.362746 245.999 0.237625 245.947 0.145408 245.855C0.0531916 245.763 0.00140381 245.638 0.00140381 245.508C0.00140381 245.377 0.0531916 245.252 0.145408 245.16C0.237625 245.068 0.362746 245.016 0.493349 245.016H349.507C349.637 245.016 349.763 245.067 349.855 245.16C349.948 245.252 350 245.377 350 245.508C350 245.638 349.948 245.763 349.855 245.856C349.763 245.948 349.637 246 349.507 246Z" fill="#1E1E1E"/>
<path d="M260.404 112.819C267.27 112.819 272.835 107.269 272.835 100.421C272.835 93.5742 267.27 88.0234 260.404 88.0234C253.539 88.0234 247.974 93.5742 247.974 100.421C247.974 107.269 253.539 112.819 260.404 112.819Z" fill="#1E1E1E"/>
<path d="M237.434 240.573H232.354L229.937 221.03H237.435L237.434 240.573Z" fill="#A0616A"/>
<path d="M228.725 239.125H238.522V245.277H222.557C222.557 244.469 222.716 243.669 223.026 242.923C223.336 242.176 223.79 241.498 224.363 240.927C224.936 240.356 225.616 239.902 226.365 239.593C227.113 239.284 227.915 239.125 228.725 239.125Z" fill="#1E1E1E"/>
<path d="M276.798 240.573H271.718L269.301 221.03H276.799L276.798 240.573Z" fill="#A0616A"/>
<path d="M268.089 239.125H277.886V245.277H261.921C261.921 244.469 262.08 243.669 262.39 242.923C262.7 242.176 263.155 241.498 263.728 240.927C264.3 240.356 264.98 239.902 265.729 239.593C266.477 239.284 267.279 239.125 268.089 239.125Z" fill="#1E1E1E"/>
<path d="M258.515 112.892C264.136 112.892 268.692 108.347 268.692 102.741C268.692 97.1357 264.136 92.5913 258.515 92.5913C252.895 92.5913 248.338 97.1357 248.338 102.741C248.338 108.347 252.895 112.892 258.515 112.892Z" fill="#A0616A"/>
<path d="M264.581 145.637L269.135 135.202C270.241 132.754 270.558 130.024 270.042 127.389C269.526 124.753 268.203 122.343 266.255 120.489C265.855 120.095 265.43 119.726 264.983 119.386C262.736 117.633 259.967 116.677 257.114 116.671C255.196 116.678 253.302 117.098 251.562 117.902C251.413 117.969 251.268 118.039 251.118 118.109C250.833 118.245 250.551 118.394 250.277 118.547C248.494 119.569 246.975 120.994 245.845 122.708C244.715 124.422 244.005 126.378 243.772 128.416L241.762 145.211C241.257 146.529 223.224 194.137 229.53 230.484C229.597 230.872 229.787 231.228 230.072 231.501C230.357 231.774 230.722 231.949 231.113 232L237.507 232.868C237.974 232.932 238.447 232.817 238.833 232.546C239.218 232.276 239.486 231.869 239.583 231.409L250.311 180.409C250.377 180.092 250.549 179.806 250.797 179.598C251.046 179.39 251.357 179.271 251.682 179.26C252.006 179.249 252.325 179.347 252.587 179.538C252.85 179.729 253.04 180.002 253.128 180.314L268.285 233.947C268.393 234.337 268.627 234.68 268.949 234.925C269.272 235.17 269.666 235.302 270.071 235.302C270.192 235.302 270.313 235.291 270.432 235.269L278.242 233.769C278.697 233.685 279.103 233.434 279.381 233.066C279.659 232.698 279.79 232.24 279.747 231.781C278.599 219.016 272.499 155.071 264.581 145.637Z" fill="#1E1E1E"/>
<path d="M218.964 111.188C218.894 111.792 218.957 112.403 219.149 112.98C219.341 113.557 219.657 114.084 220.076 114.526C220.494 114.967 221.005 115.312 221.571 115.535C222.138 115.758 222.746 115.855 223.354 115.818L229.043 129.453L233.346 123.091L227.284 111.119C227.155 110.104 226.657 109.172 225.884 108.499C225.112 107.826 224.119 107.459 223.093 107.468C222.068 107.477 221.081 107.86 220.32 108.546C219.559 109.231 219.077 110.172 218.964 111.188Z" fill="#A0616A"/>
<path d="M257.951 159.365C258.556 159.293 259.137 159.09 259.655 158.769C260.172 158.449 260.613 158.019 260.946 157.51C261.279 157.001 261.496 156.426 261.582 155.824C261.667 155.223 261.62 154.61 261.443 154.029L273.411 145.334L266.206 142.643L255.944 151.312C254.985 151.674 254.192 152.374 253.716 153.28C253.24 154.186 253.114 155.235 253.361 156.228C253.609 157.22 254.212 158.088 255.058 158.666C255.904 159.245 256.933 159.493 257.951 159.365Z" fill="#A0616A"/>
<path d="M238.439 138.543C237.98 138.543 237.523 138.498 237.073 138.409C235.984 138.202 234.963 137.731 234.1 137.038C233.236 136.345 232.557 135.451 232.122 134.435L224.152 124.742C223.984 124.537 223.861 124.299 223.792 124.043C223.724 123.787 223.711 123.519 223.755 123.258C223.798 122.996 223.897 122.747 224.045 122.527C224.193 122.307 224.387 122.121 224.613 121.981L230.283 118.481C230.492 118.351 230.725 118.265 230.968 118.226C231.211 118.187 231.46 118.196 231.699 118.253C231.939 118.311 232.164 118.415 232.363 118.559C232.562 118.704 232.73 118.887 232.858 119.097L238.475 128.326L249.233 120.397C250.089 119.949 251.079 119.824 252.02 120.043C252.962 120.263 253.793 120.813 254.362 121.593C254.93 122.374 255.198 123.332 255.117 124.293C255.036 125.254 254.611 126.154 253.919 126.828L243.182 136.596C241.921 137.844 240.216 138.543 238.439 138.543Z" fill="#1E1E1E"/>
<path d="M267.507 153.12C267.492 153.12 267.478 153.12 267.463 153.12C267.202 153.113 266.944 153.052 266.708 152.94C266.472 152.829 266.262 152.669 266.091 152.471L261.05 146.605C260.878 146.405 260.751 146.171 260.677 145.919C260.602 145.667 260.582 145.401 260.618 145.141C260.654 144.88 260.746 144.63 260.886 144.407C261.026 144.184 261.212 143.993 261.431 143.847L270.871 137.571L262.319 127.317C261.822 126.49 261.639 125.512 261.805 124.561C261.971 123.611 262.474 122.752 263.223 122.141C263.971 121.53 264.915 121.208 265.882 121.234C266.848 121.26 267.773 121.632 268.488 122.282L278.882 132.412C279.7 133.158 280.324 134.09 280.701 135.129C281.079 136.168 281.198 137.283 281.048 138.377C280.898 139.472 280.484 140.515 279.842 141.415C279.199 142.315 278.347 143.046 277.359 143.546L268.864 152.536C268.689 152.72 268.479 152.867 268.246 152.968C268.012 153.068 267.761 153.12 267.507 153.12Z" fill="#1E1E1E"/>
<path d="M255.928 131.506C255.847 131.506 255.766 131.501 255.686 131.491C255.335 131.448 255.003 131.306 254.731 131.082C254.458 130.857 254.256 130.559 254.148 130.223L250.36 118.639C250.265 118.346 250.28 118.029 250.401 117.746C250.522 117.463 250.742 117.234 251.02 117.1L251.143 117.042C251.255 116.989 251.365 116.937 251.478 116.887C253.244 116.07 255.167 115.644 257.114 115.638C259.642 115.642 262.114 116.383 264.225 117.769C264.508 117.957 264.706 118.248 264.776 118.58C264.846 118.912 264.782 119.258 264.599 119.544L257.493 130.647C257.326 130.911 257.095 131.128 256.821 131.278C256.548 131.428 256.24 131.507 255.928 131.506Z" fill="#E6E6E6"/>
<path d="M270.205 94.8867C272.451 94.8867 274.272 93.0704 274.272 90.8298C274.272 88.5893 272.451 86.7729 270.205 86.7729C267.958 86.7729 266.137 88.5893 266.137 90.8298C266.137 93.0704 267.958 94.8867 270.205 94.8867Z" fill="#1E1E1E"/>
<path d="M256.261 86.3706C253.403 86.3706 250.663 87.5026 248.643 89.5177C246.622 91.5327 245.487 94.2657 245.487 97.1154V101.661H251.093L253.775 97.1155L254.579 101.661H271.592L267.034 97.1154C267.034 94.2657 265.899 91.5327 263.879 89.5177C261.858 87.5026 259.118 86.3706 256.261 86.3706Z" fill="#1E1E1E"/>
<path d="M272.295 88.051C272.745 86.6482 273.677 85.4485 274.926 84.6627C276.175 83.877 277.661 83.5555 279.124 83.7549C281.717 84.1871 283.766 86.2653 284.987 88.5864C286.209 90.9075 286.773 93.5053 287.593 95.9954C288.414 98.4854 289.579 100.989 291.651 102.601C293.724 104.213 296.904 104.65 298.94 102.992C298.707 104.72 297.936 106.331 296.735 107.598C295.534 108.865 293.964 109.723 292.247 110.052C290.53 110.38 288.753 110.161 287.167 109.427C285.581 108.693 284.267 107.48 283.411 105.96C282.337 104.054 282.059 101.82 281.741 99.657C281.422 97.4939 281.009 95.2558 279.726 93.4827C278.444 91.7095 276.044 90.5514 274.007 91.3591L272.295 88.051Z" fill="#1E1E1E"/>
<path d="M140.032 94.24C136.323 94.2396 132.767 92.7701 130.145 90.1548C127.523 87.5395 126.05 83.9925 126.049 80.294C126.049 77.7715 126.051 75.8429 126.055 75.5687C126.173 66.9287 128.354 58.4413 132.419 50.8105C125.741 59.9283 122.069 70.8906 121.911 82.1809C121.907 82.4552 121.906 84.3838 121.906 86.9062C121.906 90.6047 123.379 94.1517 126.001 96.767C128.623 99.3823 132.18 100.852 135.888 100.852C138.935 100.851 141.899 99.8579 144.328 98.0237C146.758 96.1895 148.521 93.6145 149.35 90.6898C146.789 92.9796 143.471 94.2441 140.032 94.24Z" fill="#1E1E1E"/>
<path d="M177.658 57.4888C181.945 57.693 186.118 58.9319 189.82 61.099C193.521 63.2662 196.64 66.2969 198.908 69.9309C201.176 73.5649 202.526 77.6937 202.842 81.9626C203.158 86.2316 202.43 90.5133 200.721 94.44C203.193 91.5449 205.009 88.1523 206.047 84.4936C207.085 80.8348 207.32 76.9959 206.735 73.2385C206.15 69.4811 204.76 65.8936 202.66 62.7205C200.559 59.5475 197.797 56.8636 194.562 54.8517C191.327 52.8398 187.695 51.5473 183.913 51.0622C180.132 50.5772 176.29 50.9111 172.65 52.0411C169.01 53.1711 165.657 55.0706 162.819 57.6102C159.982 60.1499 157.727 63.2698 156.208 66.7574C158.833 63.6775 162.132 61.2401 165.851 59.6331C169.57 58.0261 173.61 57.2925 177.658 57.4888Z" fill="#1E1E1E"/>
<path d="M181.96 181.025C178.177 181.026 174.545 179.544 171.848 176.898C169.152 174.252 167.606 170.655 167.544 166.882C167.369 155.949 167.278 142.478 167.278 140.939C167.276 137.193 167.816 133.467 168.883 129.877L168.878 129.875C169.508 128.073 170.269 126.319 171.155 124.626C168.436 128.24 166.272 132.238 164.734 136.487L164.74 136.489C163.673 140.08 163.132 143.806 163.134 147.551C163.134 149.091 163.225 162.561 163.401 173.495C163.462 177.267 165.008 180.864 167.705 183.51C170.402 186.156 174.033 187.638 177.816 187.638C180.935 187.637 183.97 186.628 186.466 184.761C188.961 182.895 190.783 180.272 191.657 177.286C189.006 179.696 185.547 181.03 181.96 181.025Z" fill="#1E1E1E"/>
<path d="M52.4336 240.761L57.5132 240.761L59.9302 221.218L52.4323 221.219L52.4336 240.761Z" fill="#FFB8B8"/>
<path d="M67.3106 245.465L51.345 245.466L51.3447 239.314L61.1418 239.313C62.7778 239.313 64.3468 239.961 65.5037 241.115C66.6606 242.269 67.3105 243.834 67.3106 245.465Z" fill="#1E1E1E"/>
<path d="M34.2017 240.761L39.2814 240.761L41.6984 221.218L34.2005 221.219L34.2017 240.761Z" fill="#FFB8B8"/>
<path d="M49.0788 245.465L33.1132 245.466L33.1129 239.314L42.91 239.313C44.546 239.313 46.115 239.961 47.2719 241.115C48.4288 242.269 49.0787 243.834 49.0788 245.465Z" fill="#1E1E1E"/>
<path d="M38.6409 234.751L33.6789 234.491C33.423 234.477 33.1724 234.413 32.9415 234.303C32.7106 234.192 32.504 234.037 32.3337 233.846C32.1634 233.655 32.0328 233.432 31.9494 233.19C31.8661 232.949 31.8316 232.693 31.848 232.438L37.7787 166.95L65.0896 174.3L67.7208 173.584L59.4923 231.559C59.4223 231.995 59.2051 232.394 58.8768 232.69C58.5484 232.987 58.1286 233.162 57.6865 233.189L52.3376 233.437C52.0701 233.452 51.8025 233.411 51.5516 233.318C51.3007 233.224 51.072 233.08 50.88 232.893C50.6879 232.707 50.5367 232.483 50.4359 232.236C50.335 231.988 50.2868 231.722 50.2941 231.455L51.2633 196.66C51.2679 196.499 51.2118 196.342 51.1062 196.221C51.0006 196.099 50.8532 196.021 50.6929 196.002C50.5326 195.984 50.3711 196.026 50.2402 196.12C50.1093 196.214 50.0185 196.354 49.9858 196.511L40.6391 233.214C40.5509 233.65 40.3139 234.041 39.9687 234.322C39.6234 234.603 39.1913 234.755 38.7458 234.754C38.7111 234.754 38.6761 234.753 38.6409 234.751Z" fill="#1E1E1E"/>
<path d="M53.3456 113.366C58.9662 113.366 63.5227 108.822 63.5227 103.216C63.5227 97.6103 58.9662 93.0659 53.3456 93.0659C47.7249 93.0659 43.1685 97.6103 43.1685 103.216C43.1685 108.822 47.7249 113.366 53.3456 113.366Z" fill="#FFB8B8"/>
<path d="M36.4014 133.037L37.5204 157.117L37.9249 165.877C37.941 166.259 38.0709 166.627 38.2978 166.934C38.5247 167.242 38.8384 167.474 39.1988 167.603L65.4427 177.085C65.6547 177.163 65.8793 177.203 66.1055 177.201C66.364 177.202 66.6201 177.151 66.8585 177.051C67.0969 176.952 67.3127 176.805 67.4931 176.621C67.6735 176.436 67.8147 176.217 67.9083 175.976C68.0019 175.736 68.046 175.479 68.038 175.222L66.962 131.925C66.8913 128.373 65.5803 124.957 63.2548 122.265C60.9293 119.574 57.7352 117.776 54.2231 117.181C53.9692 117.143 53.7109 117.104 53.4527 117.07C51.2749 116.8 49.0642 117.01 46.9764 117.684C44.8885 118.358 42.9741 119.48 41.3679 120.971C39.7046 122.497 38.3977 124.369 37.5395 126.453C36.6813 128.538 36.2928 130.786 36.4014 133.037Z" fill="#CCCCCC"/>
<path d="M77.9794 172.28C77.3587 172.088 76.7916 171.754 76.3234 171.304C75.8551 170.855 75.4987 170.302 75.2826 169.691C75.0665 169.079 74.9966 168.426 75.0786 167.783C75.1606 167.14 75.3922 166.525 75.7548 165.987L66.8552 154.185L74.535 153.71L81.8089 164.991C82.5876 165.592 83.1294 166.446 83.3394 167.406C83.5494 168.365 83.4141 169.367 82.9572 170.236C82.5004 171.106 81.7511 171.787 80.8409 172.161C79.9307 172.535 78.9176 172.577 77.9794 172.28Z" fill="#FFB8B8"/>
<path d="M71.7221 163.851C71.4863 163.756 71.2718 163.614 71.0911 163.436C70.9104 163.257 70.7669 163.045 70.6691 162.81L57.2612 130.95C56.9981 130.326 56.8608 129.657 56.8572 128.98C56.8537 128.303 56.9838 127.633 57.2403 127.006C57.4968 126.379 57.8746 125.81 58.352 125.329C58.8294 124.848 59.3972 124.466 60.0229 124.204C60.6485 123.942 61.3198 123.805 61.9983 123.802C62.6768 123.799 63.3493 123.93 63.9773 124.186C64.6053 124.442 65.1765 124.819 65.6582 125.296C66.14 125.772 66.5229 126.339 66.785 126.963L80.1929 158.824C80.3911 159.296 80.3933 159.828 80.1991 160.302C80.0048 160.776 79.63 161.154 79.1568 161.352L73.2044 163.844C72.9701 163.943 72.7184 163.994 72.4639 163.996C72.2095 163.997 71.9573 163.948 71.7221 163.851Z" fill="#CCCCCC"/>
<path d="M50.0736 162.727L62.9516 138.134C63.1999 137.661 63.6262 137.306 64.137 137.146C64.6477 136.986 65.2012 137.035 65.676 137.282L84.3684 147.018C84.8426 147.266 85.1989 147.691 85.3592 148.2C85.5195 148.71 85.4707 149.262 85.2234 149.735L72.3454 174.328C72.097 174.801 71.6707 175.157 71.16 175.316C70.6492 175.476 70.0958 175.428 69.621 175.181L50.9286 165.444C50.4544 165.197 50.098 164.772 49.9377 164.262C49.7774 163.753 49.8263 163.201 50.0736 162.727Z" fill="#1E1E1E"/>
<path d="M58.71 151.492C58.4811 150.885 58.1131 150.34 57.6356 149.901C57.158 149.461 56.584 149.139 55.9593 148.96C55.3347 148.781 54.6768 148.75 54.038 148.869C53.3993 148.989 52.7974 149.256 52.2804 149.649L39.9414 141.485L39.9204 149.159L51.6409 155.735C52.2879 156.475 53.1754 156.964 54.1478 157.116C55.1202 157.269 56.1153 157.075 56.9587 156.568C57.802 156.062 58.4398 155.276 58.76 154.348C59.0802 153.419 59.0625 152.408 58.71 151.492Z" fill="#FFB8B8"/>
<path d="M43.1093 153.217L33.0251 145.25C31.9342 144.885 30.9485 144.261 30.1526 143.432C29.3566 142.603 28.7743 141.594 28.4555 140.491C28.1367 139.389 28.091 138.225 28.3223 137.101C28.5536 135.976 29.055 134.925 29.7834 134.036L38.9396 122.069C39.5759 121.293 40.4707 120.772 41.4606 120.6C42.4504 120.429 43.4691 120.618 44.3305 121.134C45.1918 121.65 45.8383 122.457 46.1517 123.409C46.4652 124.361 46.4246 125.394 46.0374 126.319L38.7928 138.138L49.4394 143.174C49.687 143.292 49.9068 143.46 50.0844 143.668C50.262 143.876 50.3932 144.119 50.4695 144.382C50.5458 144.644 50.5654 144.92 50.527 145.19C50.4886 145.461 50.393 145.72 50.2466 145.951L45.949 152.735C45.8037 152.964 45.6118 153.16 45.3858 153.31C45.1597 153.46 44.9046 153.561 44.6368 153.607C44.6262 153.609 44.6155 153.611 44.6048 153.612C44.3417 153.652 44.0732 153.637 43.816 153.569C43.5588 153.501 43.3183 153.382 43.1093 153.217Z" fill="#CCCCCC"/>
<path d="M45.6555 110.013C45.6119 109.885 45.598 109.75 45.615 109.616C45.6321 109.483 45.6795 109.355 45.7538 109.242C45.828 109.13 45.9271 109.036 46.0434 108.967C46.1597 108.899 46.2901 108.858 46.4247 108.848C46.7004 108.863 46.9701 108.933 47.2177 109.055C47.4652 109.177 47.6855 109.348 47.8651 109.557C48.2334 109.98 48.6622 110.347 49.1377 110.646C49.63 110.894 50.2977 110.859 50.5783 110.387C50.8419 109.944 50.6613 109.35 50.5017 108.836C50.0957 107.526 49.8686 106.168 49.8264 104.798C49.7804 103.269 49.9967 101.673 50.8456 100.48C51.9411 98.9409 53.9 98.3565 55.7538 98.3989C57.6077 98.4413 59.4315 99.012 61.2678 99.3728C61.9017 99.4974 62.6469 99.5611 63.0709 99.071C63.5217 98.55 63.3562 97.7067 63.1644 97.0032C62.6668 95.1776 62.1389 93.2902 60.9827 91.8158C59.7326 90.2838 57.9468 89.2811 55.9852 89.0097C54.1018 88.777 52.19 88.9935 50.4069 89.6413C47.5018 90.5545 44.9454 92.3306 43.0798 94.7321C41.1566 97.286 40.3256 100.495 40.7685 103.659C41.2011 106.414 42.6649 108.903 44.8648 110.624L45.6555 110.013Z" fill="#1E1E1E"/>
<path d="M174.553 240.842C171.845 239.665 169.448 237.878 167.552 235.62C165.656 233.361 164.312 230.695 163.626 227.83C162.94 224.965 162.931 221.98 163.6 219.111C164.269 216.242 165.597 213.567 167.479 211.298C165.297 212.887 163.478 214.922 162.143 217.266C160.809 219.611 159.99 222.211 159.74 224.895C159.491 227.579 159.817 230.286 160.696 232.835C161.575 235.384 162.988 237.717 164.841 239.68C166.693 241.643 168.944 243.19 171.442 244.219C173.94 245.248 176.629 245.736 179.33 245.649C182.032 245.563 184.684 244.904 187.11 243.717C189.537 242.53 191.683 240.842 193.405 238.765C190.719 240.724 187.564 241.946 184.257 242.31C180.949 242.674 177.603 242.168 174.553 240.842Z" fill="#1E1E1E"/>
</g>
<defs>
<clipPath id="clip0_23_599">
<rect width="350" height="246" fill="white"/>
</clipPath>
</defs>
</svg>
