<svg xmlns="http://www.w3.org/2000/svg" version="1.1" xmlns:xlink="http://www.w3.org/1999/xlink" xmlns:svgjs="http://svgjs.com/svgjs" width="500" height="500"><svg xmlns="http://www.w3.org/2000/svg" xmlns:xlink="http://www.w3.org/1999/xlink" width="500" zoomAndPan="magnify" viewBox="0 0 375 374.999991" height="500" preserveAspectRatio="xMidYMid meet" version="1.0"><defs><g></g></defs><rect x="-37.5" width="450" fill="#ffffff" y="-37.499999" height="449.999989" fill-opacity="1"></rect><rect x="-37.5" width="450" fill="#ffffff" y="-37.499999" height="449.999989" fill-opacity="1"></rect><path fill="#ffa324" d="M 50.929688 23.992188 L 324.003906 23.992188 C 349.863281 23.992188 370.824219 44.953125 370.824219 70.8125 L 370.824219 300.054688 C 370.824219 325.914062 349.863281 346.875 324.003906 346.875 L 50.929688 346.875 C 25.074219 346.875 4.113281 325.914062 4.113281 300.054688 L 4.113281 70.8125 C 4.113281 44.953125 25.074219 23.992188 50.929688 23.992188 Z M 50.929688 23.992188 " fill-opacity="1" fill-rule="nonzero"></path><g fill="#ffffff" fill-opacity="1"><g transform="translate(25.274428, 270.162702)"><g><path d="M 91.046875 0 L 57.796875 0 L 57.796875 -91.046875 L 58.125 -106.015625 L 58.65625 -122.375 C 53.132812 -116.84375 49.296875 -113.21875 47.140625 -111.5 L 29.0625 -96.96875 L 13.015625 -116.984375 L 63.71875 -157.359375 L 91.046875 -157.359375 Z M 91.046875 0 "></path></g></g></g><g fill="#ffffff" fill-opacity="1"><g transform="translate(151.08601, 270.162702)"><g><path d="M 33.90625 -110.21875 C 33.90625 -101.101562 34.710938 -94.300781 36.328125 -89.8125 C 37.941406 -85.332031 40.539062 -83.09375 44.125 -83.09375 C 51.007812 -83.09375 54.453125 -92.132812 54.453125 -110.21875 C 54.453125 -128.15625 51.007812 -137.125 44.125 -137.125 C 40.539062 -137.125 37.941406 -134.914062 36.328125 -130.5 C 34.710938 -126.082031 33.90625 -119.320312 33.90625 -110.21875 Z M 81.578125 -110.421875 C 81.578125 -93.921875 78.382812 -81.523438 72 -73.234375 C 65.613281 -64.953125 56.25 -60.8125 43.90625 -60.8125 C 32.070312 -60.8125 22.925781 -65.0625 16.46875 -73.5625 C 10.007812 -82.0625 6.78125 -94.347656 6.78125 -110.421875 C 6.78125 -143.210938 19.15625 -159.609375 43.90625 -159.609375 C 56.03125 -159.609375 65.335938 -155.359375 71.828125 -146.859375 C 78.328125 -138.359375 81.578125 -126.210938 81.578125 -110.421875 Z M 155.625 -157.359375 L 68.34375 0 L 42.515625 0 L 129.796875 -157.359375 Z M 144.109375 -47.359375 C 144.109375 -38.242188 144.914062 -31.441406 146.53125 -26.953125 C 148.144531 -22.472656 150.75 -20.234375 154.34375 -20.234375 C 161.226562 -20.234375 164.671875 -29.273438 164.671875 -47.359375 C 164.671875 -65.296875 161.226562 -74.265625 154.34375 -74.265625 C 150.75 -74.265625 148.144531 -72.054688 146.53125 -67.640625 C 144.914062 -63.234375 144.109375 -56.472656 144.109375 -47.359375 Z M 191.796875 -47.578125 C 191.796875 -31.140625 188.601562 -18.773438 182.21875 -10.484375 C 175.832031 -2.203125 166.46875 1.9375 154.125 1.9375 C 142.28125 1.9375 133.128906 -2.3125 126.671875 -10.8125 C 120.210938 -19.320312 116.984375 -31.578125 116.984375 -47.578125 C 116.984375 -80.359375 129.363281 -96.75 154.125 -96.75 C 166.25 -96.75 175.554688 -92.5 182.046875 -84 C 188.546875 -75.5 191.796875 -63.359375 191.796875 -47.578125 Z M 191.796875 -47.578125 "></path></g></g></g></svg><style>@media (prefers-color-scheme: light) { :root { filter: none; } }
@media (prefers-color-scheme: dark) { :root { filter: none; } }
</style></svg>